<svg width="600" height="600" viewBox="0 0 600 600" fill="none" xmlns="http://www.w3.org/2000/svg">
<path d="M299.45 596.508C463.511 596.508 596.508 463.511 596.508 299.45C596.508 135.39 463.511 2.39214 299.45 2.39214C135.39 2.39214 2.39214 135.39 2.39214 299.45C2.39214 463.511 135.39 596.508 299.45 596.508Z" fill="#E1E9F1"/>
<mask id="mask0_1_2" style="mask-type:alpha" maskUnits="userSpaceOnUse" x="2" y="2" width="595" height="595">
<path d="M299.45 596.508C463.511 596.508 596.508 463.511 596.508 299.45C596.508 135.39 463.511 2.39214 299.45 2.39214C135.39 2.39214 2.39214 135.39 2.39214 299.45C2.39214 463.511 135.39 596.508 299.45 596.508Z" fill="#C4C4C4"/>
</mask>
<g mask="url(#mask0_1_2)">
<path d="M299.439 655.921C424.124 655.921 525.202 597.402 525.202 525.215C525.202 453.028 424.124 394.51 299.439 394.51C174.753 394.51 73.6746 453.028 73.6746 525.215C73.6746 597.402 174.753 655.921 299.439 655.921Z" fill="#F5F7F9"/>
</g>
<path d="M299.452 361.833C358.513 361.833 406.392 313.954 406.392 254.892C406.392 195.83 358.513 147.951 299.452 147.951C240.39 147.951 192.511 195.83 192.511 254.892C192.511 313.954 240.39 361.833 299.452 361.833Z" fill="#F5F7F9"/>
</svg>
